<svg xmlns="http://www.w3.org/2000/svg" id="FO_Horizontal_NoTag_RGB_Ink" width="268.618" height="30.5" viewBox="0 0 268.618 30.5"><path id="Path_1" data-name="Path 1" d="M440.15,57.9h3.917V49.885h7.572V46.463h-7.572V41.847h8.66v-3.4H440.15Z" transform="translate(-376.302 -32.873)" fill="#131a26"></path><path id="Path_2" data-name="Path 2" d="M577.281,36.66c-5.657,0-9.491,4.461-9.491,9.983s3.838,9.984,9.491,9.984c5.627,0,9.49-4.461,9.49-9.984S582.906,36.66,577.281,36.66Zm0,16.181c-3.626,0-5.757-2.7-5.757-6.2,0-3.526,2.127-6.223,5.757-6.223s5.7,2.7,5.7,6.223C582.985,50.145,580.911,52.841,577.281,52.841Z" transform="translate(-485.427 -31.342)" fill="#131a26"></path><path id="Path_3" data-name="Path 3" d="M766.3,44.777c0-3.242-2.541-6.327-5.757-6.327H751.73V57.9h3.917V50.689h2.7l4.511,7.209h4.382l-4.98-7.473A5.815,5.815,0,0,0,766.3,44.777Zm-5.913,2.878h-4.746v-5.8h4.746c1.323,0,2.36,1.218,2.36,2.9C762.752,46.488,761.739,47.655,760.391,47.655Z" transform="translate(-642.685 -32.873)" fill="#131a26"></path><path id="Path_4" data-name="Path 4" d="M1135.22,41.847h5.524V57.9h3.863V41.847h5.5v-3.4H1135.22Z" transform="translate(-970.547 -32.873)" fill="#131a26"></path><path id="Path_5" data-name="Path 5" d="M1300.685,46.437h-8.35V38.45h-3.915V57.9h3.915V49.885h8.35V57.9h3.917V38.45h-3.917Z" transform="translate(-1101.524 -32.873)" fill="#131a26"></path><path id="Path_6" data-name="Path 6" d="M1457.16,57.9h12.81V54.475h-8.893v-4.59h7.8V46.463h-7.8V41.847h8.893v-3.4h-12.81Z" transform="translate(-1245.787 -32.873)" fill="#131a26"></path><path id="Path_7" data-name="Path 7" d="M1616.567,44.777c0-3.242-2.542-6.327-5.756-6.327H1602V57.9h3.917V50.689h2.7l4.513,7.209h4.382l-4.987-7.473A5.815,5.815,0,0,0,1616.567,44.777Zm-5.913,2.878h-4.738v-5.8h4.745c1.323,0,2.36,1.218,2.36,2.9C1613.014,46.488,1612.009,47.655,1610.654,47.655Z" transform="translate(-1369.616 -32.873)" fill="#131a26"></path><path id="Path_8" data-name="Path 8" d="M1758.034,39.928a3.321,3.321,0,0,1,3.481,3.059h3.626c-.779-4.305-3.164-6.327-7.209-6.327-3.734,0-6.818,2.1-6.818,5.367,0,3.138,2.8,4.331,5.445,5.367,2.282.881,4.433,1.686,4.433,3.5-.025,1.5-1.348,2.1-3.111,2.1-2.756,0-3.708-1.5-4.044-2.878l-3.4-.026a6.865,6.865,0,0,0,7.313,6.535c3.967,0,7.208-1.842,7.208-5.783,0-3.76-3.37-5.077-6.171-6.2-1.971-.778-3.657-1.451-3.657-2.775C1755.129,40.68,1756.478,39.928,1758.034,39.928Z" transform="translate(-1496.524 -31.342)" fill="#131a26"></path><path id="Path_9" data-name="Path 9" d="M975.9,36.66c-5.657,0-9.491,4.461-9.491,9.983s3.838,9.984,9.491,9.984c5.627,0,9.49-4.461,9.49-9.984S981.528,36.66,975.9,36.66Zm0,16.181c-3.626,0-5.757-2.7-5.757-6.2,0-3.526,2.127-6.223,5.757-6.223s5.705,2.7,5.705,6.223C981.606,50.145,979.532,52.841,975.9,52.841Z" transform="translate(-826.224 -31.342)" fill="#131a26"></path><path id="Path_10" data-name="Path 10" d="M148.11,0l8.934,15.028L148.217,30.5h7.394l8.866-15.539L155.581,0Z" transform="translate(-126.625)" fill="#131a26"></path><path id="Path_11" data-name="Path 11" d="M8.9,0,0,14.961,8.866,30.5H16.26L7.431,15.028,16.367,0Z" fill="#131a26"></path></svg>